<svg height="480pt" viewBox="0 -20 480 480" width="480pt" xmlns="http://www.w3.org/2000/svg"><path d="m472 140c0 172-232 292-232 292s-232-120-232-292c0-68.480469 55.519531-132 124-132 44.773438.003906 86.0625 24.167969 108 63.199219 21.9375-39.03125 63.226562-63.195313 108-63.199219 68.480469 0 124 63.519531 124 132zm0 0" fill="#ff6243"/><path d="m408 224c0 8.835938-7.164062 16-16 16s-16-7.164062-16-16 7.164062-16 16-16 16 7.164062 16 16zm0 0" fill="#ffd422"/><path d="m400 96c0 8.835938-7.164062 16-16 16s-16-7.164062-16-16 7.164062-16 16-16 16 7.164062 16 16zm0 0" fill="#ffd422"/><path d="m328 192 16 24v40l-24 24v16l-32 8-8 24h-24l-16-16v-176l16-16h24l8 24h24l16 16zm0 0" fill="#ed539d"/><path d="m192 144 8-24h24l16 16v176l-16 16h-24l-8-24-32-8v-16l-24-24v-40l16-24v-32l16-16zm0 0" fill="#ea348b"/><path d="m112 96c0 8.835938-7.164062 16-16 16s-16-7.164062-16-16 7.164062-16 16-16 16 7.164062 16 16zm0 0" fill="#ffd422"/><path d="m104 224c0 8.835938-7.164062 16-16 16s-16-7.164062-16-16 7.164062-16 16-16 16 7.164062 16 16zm0 0" fill="#ffd422"/><path d="m348 0c-43 .0664062-83.28125 21.039062-108 56.222656-24.71875-35.183594-65-56.1562498-108-56.222656-70.320312 0-132 65.425781-132 140 0 72.679688 41.039062 147.535156 118.6875 216.480469 35.976562 31.882812 75.441406 59.597656 117.640625 82.625 2.304687 1.1875 5.039063 1.1875 7.34375 0 42.183594-23.027344 81.636719-50.746094 117.601563-82.625 77.6875-68.945313 118.726562-143.800781 118.726562-216.480469 0-74.574219-61.679688-140-132-140zm-108 422.902344c-29.382812-16.214844-224-129.496094-224-282.902344 0-66.054688 54.207031-124 116-124 41.867188.074219 80.460938 22.660156 101.03125 59.128906 1.539062 2.351563 4.160156 3.765625 6.96875 3.765625s5.429688-1.414062 6.96875-3.765625c20.570312-36.46875 59.164062-59.054687 101.03125-59.128906 61.792969 0 116 57.945312 116 124 0 153.40625-194.617188 266.6875-224 282.902344zm0 0"/><path d="m293.65625 218.34375-13.65625-13.65625v-20.6875h-16v24c0 2.121094.84375 4.15625 2.34375 5.65625l16 16zm0 0"/><path d="m285.65625 242.34375-11.3125 11.3125 5.65625 5.65625v12.6875h16v-16c0-2.121094-.84375-4.15625-2.34375-5.65625zm0 0"/><path d="m200 204.6875-13.65625 13.65625 11.3125 11.3125 16-16c1.5-1.5 2.34375-3.535156 2.34375-5.65625v-24h-16zm0 0"/><path d="m186.34375 250.34375c-1.5 1.5-2.34375 3.535156-2.34375 5.65625v16h16v-12.6875l5.65625-5.65625-11.3125-11.3125zm0 0"/><path d="m392 200c-10.132812.042969-19.148438 6.445312-22.527344 16h-17.472656c-.003906-1.578125-.46875-3.125-1.34375-4.441406l-14.65625-21.957032v-21.601562h32c2.121094 0 4.15625-.84375 5.65625-2.34375l16-16c1.5-1.5 2.34375-3.535156 2.34375-5.65625v-25.472656c11.019531-3.894532 17.632812-15.164063 15.65625-26.683594-1.976562-11.523438-11.96875-19.941406-23.65625-19.941406s-21.679688 8.417968-23.65625 19.941406c-1.976562 11.519531 4.636719 22.789062 15.65625 26.683594v22.160156l-11.3125 11.3125h-33.375l-13.65625-13.65625c-1.5-1.5-3.535156-2.34375-5.65625-2.34375h-18.230469l-6.175781-18.527344c-1.089844-3.269531-4.148438-5.472656-7.59375-5.472656h-24c-2.121094 0-4.15625.84375-5.65625 2.34375l-10.34375 10.34375-10.34375-10.34375c-1.5-1.5-3.535156-2.34375-5.65625-2.34375h-24c-3.445312 0-6.503906 2.203125-7.59375 5.472656l-6.175781 18.527344h-18.230469c-2.121094 0-4.15625.84375-5.65625 2.34375l-13.65625 13.65625h-33.375l-11.3125-11.3125v-22.160156c11.019531-3.894532 17.632812-15.164063 15.65625-26.683594-1.976562-11.523438-11.96875-19.941406-23.65625-19.941406s-21.679688 8.417968-23.65625 19.941406c-1.976562 11.519531 4.636719 22.789062 15.65625 26.683594v25.472656c0 2.121094.84375 4.15625 2.34375 5.65625l16 16c1.5 1.5 3.535156 2.34375 5.65625 2.34375h32v21.601562l-14.65625 21.984376c-.871094 1.308593-1.335938 2.84375-1.34375 4.414062h-17.472656c-3.894532-11.019531-15.164063-17.632812-26.683594-15.65625-11.523438 1.976562-19.941406 11.96875-19.941406 23.65625s8.417968 21.679688 19.941406 23.65625c11.519531 1.976562 22.789062-4.636719 26.683594-15.65625h17.472656v24c0 2.121094.84375 4.15625 2.34375 5.65625l21.65625 21.65625v12.6875c0 3.667969 2.496094 6.867188 6.054688 7.761719l27.746093 6.933593 6.605469 19.832032c1.089844 3.269531 4.148438 5.472656 7.59375 5.472656h24c2.121094 0 4.15625-.84375 5.65625-2.34375l10.34375-10.34375 10.34375 10.34375c1.5 1.5 3.535156 2.34375 5.65625 2.34375h24c3.445312 0 6.503906-2.203125 7.59375-5.472656l6.605469-19.832032 27.746093-6.933593c3.558594-.894531 6.054688-4.09375 6.054688-7.761719v-12.6875l21.65625-21.65625c1.5-1.5 2.34375-3.535156 2.34375-5.65625v-24h17.472656c4.085938 11.476562 16.136719 18.058594 28.003906 15.296875 11.863282-2.761719 19.769532-13.988281 18.367188-26.09375-1.402344-12.101563-11.660156-21.226563-23.84375-21.203125zm-8-112c4.417969 0 8 3.582031 8 8s-3.582031 8-8 8-8-3.582031-8-8 3.582031-8 8-8zm-288 0c4.417969 0 8 3.582031 8 8s-3.582031 8-8 8-8-3.582031-8-8 3.582031-8 8-8zm-8 144c-4.417969 0-8-3.582031-8-8s3.582031-8 8-8 8 3.582031 8 8-3.582031 8-8 8zm132.6875 88h-14.917969l-4.617187-13.839844 12.503906-12.503906c1.5-1.5 2.34375-3.535156 2.34375-5.65625v-8h-16v4.6875l-10.457031 10.457031-21.542969-5.390625v-41.753906h-16v12.6875l-8-8v-34.289062l9.238281-13.863282 6.761719 6.753906v4.710938h16v-8c0-2.121094-.84375-4.15625-2.34375-5.65625l-13.65625-13.65625v-25.375l11.3125-11.3125h17.375l11.3125 11.3125v4.6875h16v-8c0-2.121094-.84375-4.15625-2.34375-5.65625l-12.503906-12.503906 4.617187-13.839844h14.917969l11.3125 11.3125v169.375zm115.3125-67.3125-8 8v-12.6875h-16v41.753906l-21.542969 5.390625-10.457031-10.457031v-4.6875h-16v8c0 2.121094.84375 4.15625 2.34375 5.65625l12.503906 12.503906-4.617187 13.839844h-14.917969l-11.3125-11.3125v-169.375l11.3125-11.3125h14.917969l4.617187 13.839844-12.503906 12.503906c-1.5 1.5-2.34375 3.535156-2.34375 5.65625v8h16v-4.6875l11.3125-11.3125h17.375l11.3125 11.3125v25.375l-13.65625 13.65625c-1.5 1.5-2.34375 3.535156-2.34375 5.65625v8h16v-4.6875l6.761719-6.753906 9.238281 13.839844zm56-20.6875c-4.417969 0-8-3.582031-8-8s3.582031-8 8-8 8 3.582031 8 8-3.582031 8-8 8zm0 0"/></svg>